<?xml version="1.0" standalone="no"?>
<!DOCTYPE svg PUBLIC "-//W3C//DTD SVG 20010904//EN"
 "http://www.w3.org/TR/2001/REC-SVG-20010904/DTD/svg10.dtd">
<svg version="1.0" xmlns="http://www.w3.org/2000/svg"
 width="192.000000pt" height="192.000000pt" viewBox="0 0 192.000000 192.000000"
 preserveAspectRatio="xMidYMid meet">

<g transform="translate(0.000000,192.000000) scale(0.100000,-0.100000)"
fill="#000000" stroke="none">
<path d="M251 1701 c-63 -33 -60 -8 -61 -678 0 -455 3 -619 12 -638 7 -15 29
-35 50 -46 36 -18 66 -19 709 -19 748 0 727 -2 755 66 18 44 21 1212 3 1263
-7 21 -24 38 -50 51 -37 19 -62 20 -711 20 -629 -1 -675 -2 -707 -19z m790
-246 c58 -20 127 -78 145 -122 8 -18 14 -54 14 -81 0 -63 -49 -141 -146 -232
-38 -36 -86 -83 -108 -104 -33 -34 -37 -36 -31 -15 10 33 37 69 124 169 128
147 142 221 59 307 -51 52 -123 76 -215 70 -43 -2 -89 -8 -103 -12 -23 -6 -23
-5 -5 6 64 41 173 46 266 14z m-10 -56 c108 -60 116 -152 21 -251 -49 -52 -57
-47 -20 11 79 129 24 221 -134 221 -73 0 -141 -28 -163 -68 l-14 -27 -1 26 c0
36 35 77 84 101 57 27 166 21 227 -13z m-50 -62 c70 -47 63 -93 -33 -207 -125
-148 -159 -250 -103 -305 32 -33 6 -33 -32 -1 -25 21 -28 31 -28 83 0 71 23
119 104 218 79 97 91 116 91 146 0 38 -52 64 -116 56 -39 -4 -54 -11 -77 -39
l-28 -33 3 30 c7 70 144 103 219 52z m-96 -399 c-4 -18 -9 -41 -11 -50 -3 -10
5 -28 20 -43 l25 -25 -23 0 c-36 0 -60 33 -52 72 6 32 31 78 42 78 3 0 3 -15
-1 -32z m-65 -247 c0 -5 -7 -11 -15 -15 -9 -3 -15 0 -15 9 0 8 7 15 15 15 8 0
15 -4 15 -9z m70 -9 c0 -10 -7 -28 -16 -40 -12 -18 -24 -22 -52 -20 -42 4 -53
23 -18 32 14 3 30 15 36 26 13 25 50 27 50 2z m50 -51 c0 -44 -40 -71 -106
-71 -99 0 -117 25 -22 32 53 4 64 8 87 35 33 40 41 40 41 4z"/>
</g>
</svg>
