<?xml version="1.0" standalone="no"?>
<!DOCTYPE svg PUBLIC "-//W3C//DTD SVG 20010904//EN"
 "http://www.w3.org/TR/2001/REC-SVG-20010904/DTD/svg10.dtd">
<svg version="1.0" xmlns="http://www.w3.org/2000/svg"
 width="242.000000pt" height="311.000000pt" viewBox="0 0 242.000000 311.000000"
 preserveAspectRatio="xMidYMid meet">

<g transform="translate(0.000000,311.000000) scale(0.100000,-0.100000)"
fill="#000000" stroke="none">
<path d="M339 2770 c-47 -25 -87 -72 -94 -113 -3 -18 -5 -482 -3 -1033 l3
-1001 27 -35 c15 -19 44 -44 65 -54 36 -18 74 -19 873 -19 825 0 835 0 874 21
49 25 74 58 86 110 12 51 12 1967 1 2018 -12 49 -61 100 -110 115 -27 8 -273
11 -862 11 -792 -1 -825 -2 -860 -20z m972 -412 c73 -34 129 -85 164 -149 26
-47 30 -66 33 -155 4 -88 1 -107 -19 -155 -40 -94 -101 -188 -187 -286 -46
-52 -102 -120 -124 -151 -39 -55 -40 -56 -33 -22 14 65 71 164 202 347 125
176 134 339 25 455 -26 28 -69 62 -97 76 -44 24 -62 27 -145 27 -85 0 -100 -3
-142 -27 -51 -28 -62 -25 -25 9 54 49 103 63 208 59 66 -3 99 -9 140 -28z
m-67 -58 c60 -23 128 -87 152 -145 24 -59 18 -144 -16 -211 -31 -61 -113 -170
-118 -156 -1 5 14 44 34 88 49 104 58 200 25 268 -18 35 -33 50 -74 70 -56 28
-142 35 -194 15 -78 -29 -142 -103 -127 -146 6 -15 5 -16 -7 -5 -20 19 -15 84
11 130 56 100 189 138 314 92z m-35 -110 c79 -40 105 -106 78 -194 -9 -28 -46
-96 -83 -151 -81 -121 -160 -283 -169 -347 -11 -73 2 -132 36 -169 16 -17 29
-33 29 -34 0 -2 -12 0 -27 4 -46 12 -84 70 -90 138 -10 111 38 239 158 423 60
92 99 173 99 206 0 9 -16 32 -35 51 -34 34 -37 35 -100 31 -54 -3 -69 -8 -94
-32 -18 -17 -31 -41 -33 -60 l-3 -31 -13 23 c-8 13 -11 34 -8 47 9 34 55 85
91 101 45 20 120 17 164 -6z m-89 -655 c-17 -61 -18 -149 -1 -169 7 -9 22 -16
33 -16 10 0 16 -4 13 -10 -11 -18 -64 -11 -86 11 -19 19 -21 30 -16 78 5 55
52 170 64 157 3 -3 0 -26 -7 -51z m-80 -408 c0 -17 -20 -37 -37 -37 -16 0 -17
22 -1 38 16 16 38 15 38 -1z m78 -21 c4 -36 -15 -84 -40 -97 -24 -13 -82 -4
-98 16 -9 11 -4 17 24 30 19 9 44 33 56 52 25 42 53 42 58 -1z m72 -81 c0 -94
-112 -152 -214 -110 -58 24 -47 45 22 43 74 -2 118 22 151 81 26 47 41 42 41
-14z"/>
</g>
</svg>
